<svg xmlns="http://www.w3.org/2000/svg" width="1200" height="630" viewBox="0 0 1200 630">
  <defs>
    <linearGradient id="bg" x1="0" y1="0" x2="1" y2="1">
      <stop offset="0%" stop-color="#0f172a"/>
      <stop offset="100%" stop-color="#1e293b"/>
    </linearGradient>
  </defs>
  <rect width="1200" height="630" fill="url(#bg)"/>

  <!-- Scattered project names as translucent background — "extracted from these" -->
  <g font-family="monospace" fill="#334155">
    <!-- Large -->
    <text x="650" y="85" font-size="42" opacity="0.15" transform="rotate(-8, 650, 85)">Linux</text>
    <text x="850" y="520" font-size="38" opacity="0.12" transform="rotate(5, 850, 520)">React</text>
    <text x="380" y="600" font-size="44" opacity="0.10" transform="rotate(-3, 380, 600)">PostgreSQL</text>
    <!-- Medium -->
    <text x="750" y="200" font-size="30" opacity="0.13" transform="rotate(4, 750, 200)">Redis</text>
    <text x="950" y="350" font-size="28" opacity="0.11" transform="rotate(-6, 950, 350)">Kafka</text>
    <text x="550" y="530" font-size="32" opacity="0.12" transform="rotate(3, 550, 530)">Nginx</text>
    <text x="1020" y="150" font-size="26" opacity="0.10" transform="rotate(-4, 1020, 150)">Go</text>
    <text x="700" y="420" font-size="28" opacity="0.11" transform="rotate(7, 700, 420)">Chromium</text>
    <!-- Small -->
    <text x="820" y="290" font-size="20" opacity="0.09" transform="rotate(-5, 820, 290)">Tokio</text>
    <text x="650" y="330" font-size="22" opacity="0.10" transform="rotate(6, 650, 330)">LevelDB</text>
    <text x="1050" y="450" font-size="18" opacity="0.08" transform="rotate(-3, 1050, 450)">etcd</text>
    <text x="900" y="580" font-size="20" opacity="0.09" transform="rotate(4, 900, 580)">Erlang</text>
    <text x="480" y="120" font-size="22" opacity="0.10" transform="rotate(-2, 480, 120)">Godot</text>
    <text x="1100" y="250" font-size="18" opacity="0.08" transform="rotate(5, 1100, 250)">V8</text>
    <text x="750" y="480" font-size="20" opacity="0.09" transform="rotate(-4, 750, 480)">Akka</text>
    <text x="950" y="80" font-size="19" opacity="0.08" transform="rotate(3, 950, 80)">gRPC</text>
    <text x="620" y="170" font-size="17" opacity="0.07" transform="rotate(-6, 620, 170)">SQLite</text>
    <text x="1080" y="560" font-size="19" opacity="0.08" transform="rotate(2, 1080, 560)">K8s</text>
    <text x="830" y="130" font-size="16" opacity="0.07" transform="rotate(-3, 830, 130)">LLVM</text>
    <text x="700" y="560" font-size="18" opacity="0.08" transform="rotate(5, 700, 560)">Rust</text>
  </g>

  <!-- Favicon icon — top right -->
  <g transform="translate(940, 120) scale(0.18)" opacity="0.9">
    <path d="M180.1728 395.2128l410.112 410.112a31.9488 31.9488 0 0 0 45.2096 0L793.6 647.3216a32 32 0 0 0 0-45.2608l-53.6064-53.6064a222.3104 222.3104 0 0 1-305.4592-305.4592l-51.2-51.2a31.9488 31.9488 0 0 0-45.2096 0l-157.952 158.208a31.9488 31.9488 0 0 0 0 45.2096z" fill="#FFC0A1"/>
    <path d="M827.3408 855.6032A54.4768 54.4768 0 0 1 788.48 839.68l-74.8032-74.752a15.36 15.36 0 0 1 0-21.7088l55.9616-55.9616a15.36 15.36 0 0 1 21.76 0l74.752 74.752a54.9376 54.9376 0 0 1-38.8608 93.7472z m-80.9984-101.6832l63.8976 63.8976a24.2176 24.2176 0 0 0 34.2528-34.2528l-63.9488-63.8976zM269.2608 313.9072a15.36 15.36 0 0 1-10.8544-4.5056l-74.8032-74.752A54.9376 54.9376 0 0 1 261.12 156.9792l74.752 74.752a15.36 15.36 0 0 1 0 21.7088L280.1152 309.4016a15.36 15.36 0 0 1-10.8544 4.5056z m-46.7968-142.2848a24.2688 24.2688 0 0 0-17.152 41.3184l63.9488 63.8976 34.2528-34.2528L239.5648 178.688a24.1152 24.1152 0 0 0-17.1008-7.0656zM368.64 883.0976a207.4112 207.4112 0 0 1-29.5424-2.048c-48.1792-6.8608-87.04-30.72-111.9744-69.2736-20.48-31.5904-15.872-65.8432-12.032-93.3888 2.304-16.5888 4.4544-32.256-1.28-35.84-32.768-21.0944-53.8624-41.4208-62.6688-60.3648-24.7808-53.3504 2.4064-119.0912 67.6864-163.84a15.36 15.36 0 0 1 17.3056 25.6c-43.5712 29.7472-78.1824 80.0256-57.1392 125.2864 6.144 13.2096 24.4224 30.0544 51.2 47.5136 22.2208 14.2848 18.5856 40.6016 15.0528 65.9968s-7.0144 50.3808 7.3216 72.3456c20.48 31.2832 50.8928 50.0224 90.624 55.6544 62.4128 8.8576 142.2848-17.8176 198.7584-66.56a15.36 15.36 0 1 1 20.0192 23.296C506.88 855.04 433.664 883.0976 368.64 883.0976z" fill="#8E5178"/>
    <path d="M658.4832 822.1184a47.2064 47.2064 0 0 1-33.4848-13.824L215.04 398.1824a47.36 47.36 0 0 1 0-66.9696l157.9008-158.0544a47.2576 47.2576 0 0 1 66.9184 0l51.2 51.2a15.36 15.36 0 0 1 2.2528 18.8416 206.8992 206.8992 0 0 0 284.2112 284.16 15.36 15.36 0 0 1 18.8416 2.2528L849.92 583.2704a47.36 47.36 0 0 1 0 66.9696l-158.0032 158.0544a47.36 47.36 0 0 1-33.4336 13.824zM406.4256 190.0032a16.5888 16.5888 0 0 0-11.776 5.12L236.5952 352.9216a16.6912 16.6912 0 0 0 0 23.552l410.112 410.112a16.6912 16.6912 0 0 0 23.5008 0l158.0544-158.0544a16.64 16.64 0 0 0 4.864-11.776 16.4352 16.4352 0 0 0-4.864-11.7248l-45.312-45.312A237.6704 237.6704 0 0 1 460.8 237.6704l-42.752-42.8032a16.5376 16.5376 0 0 0-11.6224-4.864z" fill="#8E5178"/>
    <path d="M669.952 588.4416a237.824 237.824 0 0 1-202.9568-361.3184 15.36 15.36 0 0 1 23.9616-2.8672l305.408 305.408a15.36 15.36 0 0 1-2.8672 24.0128 237.312 237.312 0 0 1-123.5456 34.7648zM483.7376 260.4544a206.9504 206.9504 0 0 0 276.48 276.48z" fill="#8E5178"/>
  </g>

  <!-- Title -->
  <text x="100" y="180" font-family="system-ui, -apple-system, sans-serif" font-size="72" font-weight="bold" fill="#e2e8f0">Battle-Tested</text>
  <text x="100" y="260" font-family="system-ui, -apple-system, sans-serif" font-size="72" font-weight="bold" fill="#818cf8">Patterns</text>
  <!-- Subtitle -->
  <text x="100" y="340" font-family="system-ui, -apple-system, sans-serif" font-size="28" fill="#94a3b8">Production-proven code patterns from top open-source projects</text>
  <!-- Divider -->
  <line x1="100" y1="380" x2="500" y2="380" stroke="#6366f1" stroke-width="3"/>
  <!-- Stats -->
  <text x="100" y="430" font-family="monospace" font-size="22" fill="#fbbf24">30+ patterns  |  4 languages  |  60 exercises  |  100+ challenges</text>
  <!-- CTA -->
  <rect x="100" y="490" width="260" height="48" rx="24" fill="#6366f1"/>
  <text x="230" y="520" text-anchor="middle" font-family="system-ui, sans-serif" font-size="20" font-weight="bold" fill="#ffffff">Star on GitHub</text>
  <!-- URL -->
  <text x="400" y="520" font-family="monospace" font-size="16" fill="#64748b">github.com/Totoro-jam/battle-tested-patterns</text>
</svg>
